<svg width="112" height="112" viewBox="0 0 112 112" fill="none" xmlns="http://www.w3.org/2000/svg">
    <path d="M100.211 0H11.7895C5.27833 0 0 5.27833 0 11.7895V100.211C0 106.722 5.27833 112 11.7895 112H100.211C106.722 112 112 106.722 112 100.211V11.7895C112 5.27833 106.722 0 100.211 0Z" fill="white"/>
    <path d="M63.8483 80.6198C62.4965 80.6198 61.3217 79.6648 61.0423 78.3442L52.7757 59.2813L44.5268 78.3492C44.1924 79.6864 43.0013 80.6181 41.6212 80.6181C41.5584 80.6181 41.4954 80.6161 41.432 80.6121H36.0861C36.0381 80.6145 35.9902 80.6156 35.9427 80.6156C34.5662 80.6157 33.3903 79.6832 33.0743 78.3448L24.4237 57.2661L24.4163 57.2483L24.4115 57.2297C24.3402 56.961 24.3093 56.6848 24.3195 56.4088C24.3125 55.8573 24.5166 55.3328 24.8946 54.9311C25.2516 54.533 25.7696 54.3017 26.3111 54.3017L26.3534 54.3021L32.6167 54.302L32.6534 54.3018C33.2287 54.3018 33.7915 54.499 34.2397 54.8575C34.6513 55.158 34.9546 55.5707 35.1179 56.0525L39.685 65.4123L47.8789 45.3259C48.0634 44.7809 48.3924 44.2967 48.8311 43.9251C49.3095 43.5317 49.9097 43.3166 50.5244 43.3166C50.5641 43.3166 50.6037 43.3175 50.6436 43.3192L54.8379 43.3189C54.8645 43.3175 54.9042 43.3166 54.9439 43.3166C55.5591 43.3166 56.1594 43.5318 56.634 43.9224C57.0708 44.2855 57.3815 44.787 57.5122 45.3377L65.833 65.2897L77.024 31.9999C77.1766 31.5233 77.4671 31.1037 77.8627 30.7902C78.3032 30.4298 78.8635 30.2297 79.4368 30.2297C79.4723 30.2297 79.5078 30.2305 79.5434 30.232L85.7185 30.2317L85.7381 30.2316C86.2906 30.2316 86.8271 30.4601 87.21 30.8585C87.6065 31.2393 87.8349 31.784 87.8285 32.3447L87.8282 32.3755L87.8214 32.4055L87.6561 33.1481L87.6528 33.1634L87.6478 33.1783L72.4123 78.3491C72.228 78.9742 71.8713 79.5481 71.3841 79.9977L71.376 80.0052L71.3673 80.012C70.8763 80.4016 70.2605 80.6161 69.6335 80.6161C69.584 80.6161 69.5345 80.6148 69.4848 80.6121H64.0589C63.9884 80.6173 63.9181 80.6198 63.8483 80.6198Z" fill="#1BBC9B"/>
    <path d="M63.8484 80.325C63.9145 80.325 63.981 80.3225 64.0478 80.3174H69.4928C69.5399 80.3201 69.5868 80.3213 69.6336 80.3213C70.1952 80.3213 70.7419 80.132 71.1843 79.7811C71.6326 79.3673 71.9604 78.84 72.1331 78.2549L87.3686 33.0841L87.5339 32.3414C87.5394 31.8594 87.3451 31.3968 86.9976 31.0627C86.6678 30.7196 86.2131 30.5264 85.7382 30.5264C85.7316 30.5264 85.7251 30.5264 85.7186 30.5265H79.5309C79.4995 30.5251 79.4682 30.5244 79.4369 30.5244C78.9307 30.5244 78.4389 30.6996 78.0459 31.0212C77.6975 31.2972 77.4389 31.6709 77.3034 32.0938L65.8627 66.1265L57.2307 45.4284C57.1173 44.9275 56.8417 44.4783 56.4468 44.1499C56.0228 43.801 55.4911 43.6113 54.944 43.6113C54.9087 43.6113 54.8733 43.6121 54.8379 43.6137H50.6304C50.5951 43.6121 50.5597 43.6113 50.5245 43.6113C49.9775 43.6113 49.4461 43.801 49.0216 44.1499C48.6217 44.4888 48.3221 44.9311 48.1555 45.4284L39.7091 66.1337L34.8446 56.1644C34.7024 55.7334 34.4282 55.3585 34.0609 55.0919C33.6619 54.7707 33.1653 54.5965 32.6535 54.5965C32.6414 54.5965 32.6291 54.5966 32.6168 54.5968H26.347C26.3351 54.5965 26.3232 54.5964 26.3112 54.5964C25.8529 54.5964 25.4159 54.7913 25.1094 55.133C24.7842 55.4786 24.6066 55.9373 24.6144 56.4121C24.6044 56.6619 24.6323 56.9122 24.6964 57.1542L33.3561 78.2549C33.6321 79.4683 34.7102 80.321 35.9427 80.3209C35.9879 80.3209 36.0335 80.3197 36.079 80.3174H41.4414C41.5018 80.3214 41.5617 80.3233 41.6213 80.3233C42.8607 80.3233 43.9525 79.4748 44.2466 78.2549L52.7755 58.5397L61.3249 78.2549C61.5669 79.466 62.631 80.325 63.8484 80.325ZM63.8484 80.9145C62.3679 80.9145 61.0797 79.8756 60.7605 78.4349L52.7761 60.0228L44.8067 78.4447C44.4313 79.9006 43.129 80.9128 41.6213 80.9128C41.5554 80.9128 41.4893 80.9108 41.4228 80.9069H36.0933C36.043 80.9092 35.9926 80.9103 35.9427 80.9103C34.4365 80.9105 33.1486 79.8954 32.793 78.4355L24.1511 57.378L24.1365 57.3424L24.1266 57.3052C24.0485 57.0104 24.0143 56.7076 24.0248 56.4047C24.0189 55.7793 24.2512 55.1849 24.68 54.7291C25.088 54.274 25.6861 54.0069 26.3112 54.0069L26.3601 54.0075L32.6168 54.0073L32.6535 54.007C33.2934 54.007 33.9199 54.2258 34.4193 54.6237C34.8722 54.956 35.2073 55.4101 35.391 55.9398L39.661 64.6909L47.6028 45.2226C47.8049 44.6305 48.1635 44.1044 48.6405 43.7002C49.1751 43.2607 49.8417 43.0218 50.5245 43.0218C50.5639 43.0218 50.6034 43.0226 50.6429 43.0242H54.8254C54.865 43.0226 54.9045 43.0218 54.944 43.0218C55.6274 43.0218 56.2941 43.2608 56.8214 43.6948C57.3018 44.0942 57.6447 44.6427 57.7932 45.2459L65.8034 64.4529L76.7447 31.906C76.9139 31.3776 77.2381 30.9091 77.6797 30.5592C78.1692 30.1587 78.7957 29.935 79.4369 29.935C79.4721 29.935 79.5073 29.9356 79.5427 29.937H85.7186L85.7382 29.9369C86.3665 29.9369 86.9768 30.1951 87.4145 30.6459C87.8723 31.0905 88.1306 31.7102 88.1233 32.3481L88.1226 32.4095L88.1093 32.4695L87.9439 33.2122L87.9371 33.2428L87.9271 33.2724L72.6952 78.4329C72.4916 79.1154 72.1076 79.7311 71.5841 80.2143L71.5679 80.2292L71.5506 80.2429C71.0076 80.6736 70.3268 80.9108 69.6336 80.9108C69.5815 80.9108 69.5295 80.9095 69.4773 80.9069H64.0692C63.9952 80.912 63.9216 80.9145 63.8484 80.9145Z" fill="#1BBC9B"/>
</svg>
